HIERARCHY
ROOT root
{
	OFFSET 0.000000 0.000000 0.000000
	CHANNELS 6 Xposition Yposition Zposition Zrotation Yrotation Xrotation
	JOINT lhip
	{
		OFFSET 0.058581 -0.082280 -0.017664
		CHANNELS 3 Zrotation Yrotation Xrotation
		JOINT lknee
		{
			OFFSET 0.043451 -0.386469 0.008037
			CHANNELS 3 Zrotation Yrotation Xrotation
			JOINT lankle
			{
				OFFSET -0.014790 -0.426874 -0.037428
				CHANNELS 3 Zrotation Yrotation Xrotation
				JOINT ltoe
				{
					OFFSET 0.041054 -0.060286 0.122042
					CHANNELS 3 Zrotation Yrotation Xrotation
					End Site
					{
						OFFSET 0.000000 0.000000 0.000000
					}
				}
			}
		}
	}
	JOINT rhip
	{
		OFFSET -0.060310 -0.090513 -0.013543
		CHANNELS 3 Zrotation Yrotation Xrotation
		JOINT rknee
		{
			OFFSET -0.043257 -0.383688 -0.004843
			CHANNELS 3 Zrotation Yrotation Xrotation
			JOINT rankle
			{
				OFFSET 0.019056 -0.420046 -0.034562
				CHANNELS 3 Zrotation Yrotation Xrotation
				JOINT rtoe
				{
					OFFSET -0.034840 -0.062106 0.130323
					CHANNELS 3 Zrotation Yrotation Xrotation
					End Site
					{
						OFFSET 0.000000 0.000000 0.000000
					}
				}
			}
		}
	}
	JOINT lowerback
	{
		OFFSET 0.004439 0.124404 -0.038385
		CHANNELS 3 Zrotation Yrotation Xrotation
		JOINT upperback
		{
			OFFSET 0.004488 0.137956 0.026820
			CHANNELS 3 Zrotation Yrotation Xrotation
			JOINT chest
			{
				OFFSET -0.002265 0.056032 0.002855
				CHANNELS 3 Zrotation Yrotation Xrotation
				JOINT lowerneck
				{
					OFFSET -0.013390 0.211636 -0.033468
					CHANNELS 3 Zrotation Yrotation Xrotation
					JOINT upperneck
					{
						OFFSET 0.010113 0.088937 0.050410
						CHANNELS 3 Zrotation Yrotation Xrotation
						End Site
						{
							OFFSET 0.000000 0.000000 0.000000
						}
					}
				}
				JOINT lclavicle
				{
					OFFSET 0.071702 0.114000 -0.018898
					CHANNELS 3 Zrotation Yrotation Xrotation
					JOINT lshoulder
					{
						OFFSET 0.122921 0.045205 -0.019046
						CHANNELS 3 Zrotation Yrotation Xrotation
						JOINT lelbow
						{
							OFFSET 0.255332 -0.015649 -0.022946
							CHANNELS 3 Zrotation Yrotation Xrotation
							JOINT lwrist
							{
								OFFSET 0.265709 0.012698 -0.007375
								CHANNELS 3 Zrotation Yrotation Xrotation
								End Site
								{
									OFFSET 0.000000 0.000000 0.000000
								}
							}
						}
					}
				}
				JOINT rclavicle
				{
					OFFSET -0.082954 0.112472 -0.023707
					CHANNELS 3 Zrotation Yrotation Xrotation
					JOINT rshoulder
					{
						OFFSET -0.113228 0.046853 -0.008472
						CHANNELS 3 Zrotation Yrotation Xrotation
						JOINT relbow
						{
							OFFSET -0.260127 -0.014369 -0.031269
							CHANNELS 3 Zrotation Yrotation Xrotation
							JOINT rwrist
							{
								OFFSET -0.269108 0.006794 -0.006027
								CHANNELS 3 Zrotation Yrotation Xrotation
								End Site
								{
									OFFSET 0.000000 0.000000 0.000000
								}
							}
						}
					}
				}
			}
		}
	}
}
MOTION
Frames: 14
Frame Time: 0.033333
-1.396578 0.230672 1.020964 91.798808 1.462053 87.509249 -3.827685 3.936035 3.990573 0.238269 -14.054692 6.875554 4.845008 12.356636 -13.776844 0.000000 -0.000000 0.000000 -3.869375 3.204892 -28.234582 1.870031 -6.752100 40.570267 3.914648 -6.608368 -4.699766 0.000000 -0.000000 0.000000 0.762299 -6.454232 16.770023 2.558974 1.325221 -5.600188 1.270752 -1.601392 -2.872493 2.122264 2.471450 -4.112018 -2.561347 -0.219692 6.515569 -28.760029 1.844336 0.438625 -51.156991 -10.089619 9.480196 6.815688 -30.394096 4.451995 -3.060621 -3.801054 3.763785 28.567213 1.346808 1.171838 48.320302 2.220461 15.019018 -8.836296 26.871170 -7.427622 8.208142 4.091138 -1.210281 
-1.373572 0.230039 1.017710 92.039170 1.685050 88.249779 -3.074771 3.665025 6.035834 0.240656 -13.859741 4.774937 4.328257 12.021871 -14.258477 0.000000 -0.000000 0.000000 -3.420660 3.773972 -28.838234 1.606009 -5.147972 30.025286 4.537706 -7.176459 -0.541858 0.000000 -0.000000 0.000000 1.162141 -6.430542 16.244977 2.337345 1.076737 -5.756115 1.504606 -2.148637 -2.694681 1.829137 2.699799 -4.020459 -1.956777 0.147231 5.847975 -28.384975 2.013032 1.047304 -51.679338 -10.655507 9.819160 7.689064 -32.077330 4.415363 -2.341937 -5.011012 2.660816 28.482725 0.785490 1.413616 48.895600 1.827125 15.195455 -8.753804 24.839442 -7.094947 7.748468 3.984553 -1.672978 
-1.350875 0.228883 1.013927 92.222010 1.582981 89.022109 -2.906012 3.776520 7.582011 0.564369 -14.109073 3.511413 3.943486 11.817782 -15.034458 0.000000 -0.000000 0.000000 -3.044289 4.147921 -29.157919 0.168524 -3.202477 19.970190 5.505647 -7.299886 2.538096 0.000000 -0.000000 0.000000 1.174876 -6.350302 16.075368 2.172966 0.971455 -5.982910 1.670299 -2.303427 -2.631673 1.602262 2.280438 -4.666727 -1.437188 0.000919 5.669498 -28.103808 2.455134 0.731454 -52.029121 -11.352576 10.164040 7.414293 -33.353793 4.889498 -2.094874 -5.406812 2.782551 28.379497 -0.104391 1.356602 49.547228 1.114250 15.326406 -8.892113 23.229606 -7.263108 7.673566 4.304625 -1.356829 
-1.322111 0.226443 1.008102 92.030710 1.006164 90.168092 -3.165354 4.041993 8.828757 0.750275 -14.162347 3.078081 3.633775 11.617410 -16.419874 0.000000 -0.000000 0.000000 -3.021045 4.533384 -30.228450 -1.376102 -1.211834 10.584835 6.446636 -7.170303 3.128284 0.000000 -0.000000 0.000000 0.760742 -5.930974 16.103356 1.801498 1.385298 -6.543010 1.742822 -2.735366 -2.491669 1.672254 2.197413 -6.021857 -1.009935 -0.296651 5.553197 -28.050577 2.822757 0.412527 -52.242892 -11.823401 10.747468 7.343939 -34.384441 5.553385 -1.867158 -5.944487 2.393071 28.475376 -1.125669 1.047766 50.227227 0.231878 15.353154 -8.492336 20.712690 -7.624656 7.749249 3.970624 -1.971591 
-1.302306 0.224000 1.005070 92.757960 1.017610 90.595738 -2.319435 4.731871 10.006148 0.621560 -15.306388 2.784679 3.093785 11.113059 -17.026775 0.000000 -0.000000 0.000000 -2.556409 4.012853 -30.167202 -1.857355 -0.523343 6.673265 6.809628 -6.972235 3.551545 0.000000 -0.000000 0.000000 0.823226 -6.023494 15.610221 1.774849 1.072316 -6.190336 1.782855 -2.876075 -2.525959 1.612326 2.346253 -6.050388 -0.654059 -0.412268 4.992841 -28.103814 2.821409 0.456959 -52.219587 -11.941536 10.522642 7.068658 -34.468765 5.873690 -1.664293 -5.983617 2.565528 28.731615 -1.342901 1.114576 50.342696 -0.543386 14.819577 -8.073169 18.746925 -7.538902 7.898305 2.926245 -1.910000 
-1.274947 0.220979 1.000993 94.004561 0.973358 90.994919 -1.308621 4.725654 11.445106 0.412770 -16.517346 3.201741 2.535880 10.479526 -17.708601 0.000000 -0.000000 0.000000 -2.627973 3.629405 -30.339975 -1.514367 -0.385777 5.386640 7.432713 -6.564010 3.898714 0.000000 -0.000000 0.000000 0.982565 -6.278382 15.185423 1.792224 0.602434 -5.781998 1.791613 -2.929737 -2.443619 1.636368 2.385369 -6.660452 -0.434109 -0.831752 4.435915 -28.111667 2.568935 0.792708 -52.532317 -12.049337 10.182182 7.249445 -34.072485 5.689421 -1.642329 -6.233131 2.392979 28.673470 -1.603832 1.326061 50.641922 -1.315467 14.280429 -7.385613 16.522488 -7.242199 8.100962 2.903531 -2.035039 
-1.246131 0.216432 0.998004 94.730600 0.843608 91.380077 -0.216157 5.016483 12.771635 0.036425 -17.644066 3.799240 1.851661 9.949376 -17.349668 0.000000 -0.000000 0.000000 -2.614565 4.299632 -31.320064 -1.087893 -0.433888 8.998328 7.422145 -5.810400 3.735607 0.000000 -0.000000 0.000000 0.526904 -6.688849 15.021318 1.917852 1.133560 -6.177267 1.890767 -2.674708 -2.617147 1.931200 1.946192 -5.574419 -0.428887 -1.273733 4.698675 -27.814170 3.322591 0.281952 -53.646888 -12.418034 10.970645 6.729414 -31.656426 6.070317 -2.420900 -5.909057 3.293690 28.500196 -2.534956 1.412729 51.175635 -2.593157 14.196188 -7.231596 14.730072 -7.566115 9.452227 2.609144 -2.092116 
-1.215126 0.210952 0.996358 95.584456 0.651227 91.472420 0.870661 4.986557 14.137380 -0.408489 -18.475423 5.197790 1.386080 9.173907 -16.988364 0.000000 -0.000000 0.000000 -2.553442 4.864658 -31.625547 -0.998637 -0.599266 12.733177 6.689159 -5.849654 6.336551 0.000000 -0.000000 0.000000 0.786094 -7.564498 14.964926 1.836904 1.313280 -5.751522 1.484337 -3.154550 -2.558821 1.483449 1.896711 -7.271971 -0.440463 -1.142337 4.696049 -28.372718 3.427392 0.457707 -52.935331 -11.216362 10.628143 7.070920 -31.024391 6.429247 -2.517006 -6.226095 2.574240 28.638088 -2.308283 1.531230 51.534100 -3.017515 14.179655 -6.914367 13.095332 -7.382483 9.705644 2.464716 -2.783675 
-1.181742 0.204869 0.996639 96.965429 1.071049 91.894753 2.411861 4.232832 14.256913 -1.272389 -18.979284 8.475398 -0.026299 8.923332 -15.614425 0.000000 -0.000000 0.000000 -2.015032 4.277983 -32.115024 -0.420524 -1.341262 17.125114 5.515853 -6.329404 6.956653 0.000000 -0.000000 0.000000 0.863275 -8.007789 13.688482 2.350998 0.948016 -5.667782 1.623400 -2.598479 -2.299378 1.679731 1.658002 -6.485640 -0.617710 -1.458813 5.146234 -28.239764 4.309182 -0.225771 -54.007533 -10.879097 10.959789 6.272944 -27.672352 7.752229 -3.339950 -5.834522 3.283979 28.416651 -3.196818 1.426541 51.711958 -3.559270 13.787127 -6.351108 11.211520 -7.323906 10.083460 2.349025 -3.025171 
-1.138187 0.196494 1.001369 96.909243 1.194018 91.710774 3.625773 3.775945 13.714626 -3.535065 -19.133280 15.600246 -1.476699 9.130884 -13.145994 0.000000 -0.000000 0.000000 -1.753652 4.847713 -30.876499 1.283078 -1.687738 21.131441 3.300410 -6.420764 4.048241 0.000000 -0.000000 0.000000 0.916855 -8.508987 12.799904 2.640875 1.280836 -4.692350 1.346920 -2.233825 -2.625829 1.732331 1.706898 -6.664582 -1.095511 -1.541980 5.705809 -29.153935 5.044303 0.065033 -53.097711 -9.063366 10.552381 5.860709 -25.813834 8.071868 -4.434984 -4.742850 2.872388 29.369102 -3.246672 1.726547 50.480149 -3.724890 13.077676 -5.718541 9.938934 -7.983370 10.553199 1.746977 -3.686265 
-1.103819 0.190218 1.006252 96.706249 1.114026 91.229435 4.406347 3.097799 11.974628 -5.535687 -16.484980 23.222901 -3.189430 8.075961 -8.899177 0.000000 -0.000000 0.000000 -0.787791 5.038018 -28.789493 1.402190 -1.582192 23.301118 2.023700 -6.093298 0.773455 0.000000 -0.000000 0.000000 0.537805 -8.103071 12.269549 2.980503 1.050411 -4.320444 1.194133 -1.990770 -2.099887 2.239114 2.324303 -7.149001 -1.444123 -1.813488 6.396578 -29.372291 6.027462 -0.763657 -52.937995 -7.502138 10.842352 4.994398 -23.208467 10.052760 -4.932622 -5.283093 3.307764 30.107921 -3.656403 0.981112 49.367404 -3.149300 13.261757 -4.809794 8.755260 -7.541286 10.033890 2.028166 -3.880491 
-1.071632 0.185395 1.008912 96.321234 1.021663 91.077145 5.117568 2.301198 7.639168 -7.566570 -12.902729 33.356665 -3.990641 6.961212 -1.845194 0.000000 -0.000000 0.000000 0.152726 5.492817 -25.972799 1.524377 -1.530978 22.848596 0.633401 -5.838103 -1.039276 0.000000 -0.000000 0.000000 -0.189746 -6.871282 12.880476 3.349567 0.681351 -5.264603 1.484577 -1.951502 -1.753783 2.344253 1.900542 -7.401548 -1.378829 -1.800253 7.182802 -29.118141 6.677303 0.325279 -54.255380 -6.587843 11.172393 5.555594 -21.592359 10.898775 -5.588862 -5.425082 3.273364 30.230622 -3.541897 0.667052 49.351319 -2.400604 13.355017 -4.623150 8.620919 -7.155207 9.860449 2.064735 -4.389767 
-1.039497 0.180563 1.011768 96.301824 1.251510 90.388375 5.893086 2.079710 2.558721 -8.313985 -9.837647 44.306466 -4.443433 6.413164 4.222948 0.000000 -0.000000 0.000000 1.326869 5.446501 -21.594011 1.916659 -1.620058 20.756738 -0.756200 -5.499971 -2.473929 0.000000 -0.000000 0.000000 -0.139342 -5.984049 13.796077 3.365132 0.223988 -5.541169 1.452207 -1.459787 -1.833454 2.215621 1.069504 -7.664680 -1.033652 -1.734202 7.393345 -29.535804 7.047078 0.248648 -54.151728 -5.331590 11.125273 4.962313 -20.995263 12.393549 -6.123068 -4.703518 3.883105 30.365191 -3.146902 0.346177 49.420610 -1.653366 12.794125 -4.584469 9.456373 -6.930474 9.487092 1.850624 -4.853848 
-1.011906 0.176448 1.014670 95.158117 1.073415 90.333886 5.966030 2.120750 -4.029438 -7.645807 -5.194755 54.833294 -4.393861 6.668877 7.974791 0.000000 -0.000000 0.000000 2.491764 3.636283 -18.636565 1.970473 0.294114 19.209910 -1.474156 -4.317414 -3.533071 0.000000 -0.000000 0.000000 -0.387366 -3.759260 13.591443 3.549489 -0.409350 -5.216625 1.338376 -1.195766 -1.939831 2.165390 0.416418 -7.968430 -0.596290 -1.674324 7.728772 -29.668207 7.252835 0.482974 -54.169678 -4.361406 11.088132 4.371970 -21.387641 13.530695 -6.726589 -3.759096 4.063185 30.476401 -2.192901 0.582332 49.154156 -0.057816 12.215452 -4.877245 10.573063 -7.571657 9.191195 1.830120 -5.327457 
